<svg width="3" height="19" viewBox="0 0 3 19" fill="none" xmlns="http://www.w3.org/2000/svg">
<path d="M1.08798 2.19195C0.78931 2.19195 0.53331 2.09061 0.319977 1.88795C0.106644 1.67461 -2.28882e-05 1.40795 -2.28882e-05 1.08795C-2.28882e-05 0.767947 0.106644 0.506614 0.319977 0.303947C0.53331 0.10128 0.78931 -5.29289e-05 1.08798 -5.29289e-05C1.37598 -5.29289e-05 1.62131 0.10128 1.82398 0.303947C2.03731 0.506614 2.14398 0.767947 2.14398 1.08795C2.14398 1.40795 2.03731 1.67461 1.82398 1.88795C1.62131 2.09061 1.37598 2.19195 1.08798 2.19195ZM1.08798 10.1919C0.78931 10.1919 0.53331 10.0906 0.319977 9.88795C0.106644 9.67461 -2.28882e-05 9.40795 -2.28882e-05 9.08795C-2.28882e-05 8.76795 0.106644 8.50661 0.319977 8.30395C0.53331 8.10128 0.78931 7.99995 1.08798 7.99995C1.37598 7.99995 1.62131 8.10128 1.82398 8.30395C2.03731 8.50661 2.14398 8.76795 2.14398 9.08795C2.14398 9.40795 2.03731 9.67461 1.82398 9.88795C1.62131 10.0906 1.37598 10.1919 1.08798 10.1919ZM1.08798 18.1919C0.78931 18.1919 0.53331 18.0906 0.319977 17.8879C0.106644 17.6746 -2.28882e-05 17.4079 -2.28882e-05 17.0879C-2.28882e-05 16.7679 0.106644 16.5066 0.319977 16.3039C0.53331 16.1013 0.78931 15.9999 1.08798 15.9999C1.37598 15.9999 1.62131 16.1013 1.82398 16.3039C2.03731 16.5066 2.14398 16.7679 2.14398 17.0879C2.14398 17.4079 2.03731 17.6746 1.82398 17.8879C1.62131 18.0906 1.37598 18.1919 1.08798 18.1919Z" fill="#1C1C1C"/>
</svg>
