<svg width="32" height="36" viewBox="0 0 32 36" fill="none" xmlns="http://www.w3.org/2000/svg">
<path d="M15.168 35.672C12.416 35.672 9.76 35.336 7.2 34.664C4.672 33.96 2.608 33.064 1.008 31.976L4.128 24.968C5.632 25.928 7.36 26.728 9.312 27.368C11.296 27.976 13.264 28.28 15.216 28.28C16.528 28.28 17.584 28.168 18.384 27.944C19.184 27.688 19.76 27.368 20.112 26.984C20.496 26.568 20.688 26.088 20.688 25.544C20.688 24.776 20.336 24.168 19.632 23.72C18.928 23.272 18.016 22.904 16.896 22.616C15.776 22.328 14.528 22.04 13.152 21.752C11.808 21.464 10.448 21.096 9.072 20.648C7.728 20.2 6.496 19.624 5.376 18.92C4.256 18.184 3.344 17.24 2.64 16.088C1.936 14.904 1.584 13.416 1.584 11.624C1.584 9.608 2.128 7.784 3.216 6.152C4.336 4.52 6 3.208 8.208 2.216C10.416 1.224 13.168 0.727998 16.464 0.727998C18.672 0.727998 20.832 0.983998 22.944 1.496C25.088 1.976 26.992 2.696 28.656 3.656L25.728 10.712C24.128 9.848 22.544 9.208 20.976 8.792C19.408 8.344 17.888 8.12 16.416 8.12C15.104 8.12 14.048 8.264 13.248 8.552C12.448 8.808 11.872 9.16 11.52 9.608C11.168 10.056 10.992 10.568 10.992 11.144C10.992 11.88 11.328 12.472 12 12.92C12.704 13.336 13.616 13.688 14.736 13.976C15.888 14.232 17.136 14.504 18.48 14.792C19.856 15.08 21.216 15.448 22.56 15.896C23.936 16.312 25.184 16.888 26.304 17.624C27.424 18.328 28.32 19.272 28.992 20.456C29.696 21.608 30.048 23.064 30.048 24.824C30.048 26.776 29.488 28.584 28.368 30.248C27.28 31.88 25.632 33.192 23.424 34.184C21.248 35.176 18.496 35.672 15.168 35.672Z" fill="white"/>
</svg>
