<svg width="26" height="26" viewBox="0 0 26 26" fill="none" xmlns="http://www.w3.org/2000/svg">
<rect width="26" height="26" rx="5" fill="white"/>
<path d="M12.8067 22.35C11.3734 22.35 9.99007 22.175 8.65674 21.825C7.34007 21.4583 6.26507 20.9917 5.43174 20.425L7.05674 16.775C7.84007 17.275 8.74007 17.6917 9.75674 18.025C10.7901 18.3417 11.8151 18.5 12.8317 18.5C13.5151 18.5 14.0651 18.4417 14.4817 18.325C14.8984 18.1917 15.1984 18.025 15.3817 17.825C15.5817 17.6083 15.6817 17.3583 15.6817 17.075C15.6817 16.675 15.4984 16.3583 15.1317 16.125C14.7651 15.8917 14.2901 15.7 13.7067 15.55C13.1234 15.4 12.4734 15.25 11.7567 15.1C11.0567 14.95 10.3484 14.7583 9.63174 14.525C8.93174 14.2917 8.29007 13.9917 7.70674 13.625C7.12341 13.2417 6.64841 12.75 6.28174 12.15C5.91507 11.5333 5.73174 10.7583 5.73174 9.825C5.73174 8.775 6.01507 7.825 6.58174 6.975C7.16507 6.125 8.03174 5.44167 9.18174 4.925C10.3317 4.40833 11.7651 4.15 13.4817 4.15C14.6317 4.15 15.7567 4.28333 16.8567 4.55C17.9734 4.8 18.9651 5.175 19.8317 5.675L18.3067 9.35C17.4734 8.9 16.6484 8.56667 15.8317 8.35C15.0151 8.11667 14.2234 8 13.4567 8C12.7734 8 12.2234 8.075 11.8067 8.225C11.3901 8.35833 11.0901 8.54167 10.9067 8.775C10.7234 9.00833 10.6317 9.275 10.6317 9.575C10.6317 9.95833 10.8067 10.2667 11.1567 10.5C11.5234 10.7167 11.9984 10.9 12.5817 11.05C13.1817 11.1833 13.8317 11.325 14.5317 11.475C15.2484 11.625 15.9567 11.8167 16.6567 12.05C17.3734 12.2667 18.0234 12.5667 18.6067 12.95C19.1901 13.3167 19.6567 13.8083 20.0067 14.425C20.3734 15.025 20.5567 15.7833 20.5567 16.7C20.5567 17.7167 20.2651 18.6583 19.6817 19.525C19.1151 20.375 18.2567 21.0583 17.1067 21.575C15.9734 22.0917 14.5401 22.35 12.8067 22.35Z" fill="black"/>
</svg>
