<svg width="20" height="22" viewBox="0 0 20 22" fill="none" xmlns="http://www.w3.org/2000/svg">
<path d="M9.48 21.84C7.76 21.84 6.1 21.63 4.5 21.21C2.92 20.77 1.63 20.21 0.63 19.53L2.58 15.15C3.52 15.75 4.6 16.25 5.82 16.65C7.06 17.03 8.29 17.22 9.51 17.22C10.33 17.22 10.99 17.15 11.49 17.01C11.99 16.85 12.35 16.65 12.57 16.41C12.81 16.15 12.93 15.85 12.93 15.51C12.93 15.03 12.71 14.65 12.27 14.37C11.83 14.09 11.26 13.86 10.56 13.68C9.86 13.5 9.08 13.32 8.22 13.14C7.38 12.96 6.53 12.73 5.67 12.45C4.83 12.17 4.06 11.81 3.36 11.37C2.66 10.91 2.09 10.32 1.65 9.6C1.21 8.86 0.99 7.93 0.99 6.81C0.99 5.55 1.33 4.41 2.01 3.39C2.71 2.37 3.75 1.55 5.13 0.929997C6.51 0.309997 8.23 -3.21865e-06 10.29 -3.21865e-06C11.67 -3.21865e-06 13.02 0.159997 14.34 0.479998C15.68 0.779997 16.87 1.23 17.91 1.83L16.08 6.24C15.08 5.7 14.09 5.3 13.11 5.04C12.13 4.76 11.18 4.62 10.26 4.62C9.44 4.62 8.78 4.71 8.28 4.89C7.78 5.05 7.42 5.27 7.2 5.55C6.98 5.83 6.87 6.15 6.87 6.51C6.87 6.97 7.08 7.34 7.5 7.62C7.94 7.88 8.51 8.1 9.21 8.28C9.93 8.44 10.71 8.61 11.55 8.79C12.41 8.97 13.26 9.2 14.1 9.48C14.96 9.74 15.74 10.1 16.44 10.56C17.14 11 17.7 11.59 18.12 12.33C18.56 13.05 18.78 13.96 18.78 15.06C18.78 16.28 18.43 17.41 17.73 18.45C17.05 19.47 16.02 20.29 14.64 20.91C13.28 21.53 11.56 21.84 9.48 21.84Z" fill="white"/>
</svg>
