<svg width="22" height="20" viewBox="0 0 22 20" fill="none" xmlns="http://www.w3.org/2000/svg">
<path d="M0.916626 0.833336H4.58329L7.03996 11.9917C7.12378 12.3753 7.35337 12.72 7.68854 12.9653C8.02371 13.2105 8.4431 13.3408 8.87329 13.3333H17.7833C18.2135 13.3408 18.6329 13.2105 18.968 12.9653C19.3032 12.72 19.5328 12.3753 19.6166 11.9917L21.0833 5H5.49996M9.16663 17.5C9.16663 17.9602 8.75622 18.3333 8.24996 18.3333C7.7437 18.3333 7.33329 17.9602 7.33329 17.5C7.33329 17.0398 7.7437 16.6667 8.24996 16.6667C8.75622 16.6667 9.16663 17.0398 9.16663 17.5ZM19.25 17.5C19.25 17.9602 18.8396 18.3333 18.3333 18.3333C17.827 18.3333 17.4166 17.9602 17.4166 17.5C17.4166 17.0398 17.827 16.6667 18.3333 16.6667C18.8396 16.6667 19.25 17.0398 19.25 17.5Z" stroke="white" stroke-linecap="round" stroke-linejoin="round"/>
</svg>
