<svg width="123" height="15" viewBox="0 0 123 15" fill="none" xmlns="http://www.w3.org/2000/svg">
<path d="M5.90002 14.56C4.75335 14.56 3.64668 14.42 2.58002 14.14C1.52668 13.8467 0.666684 13.4733 1.71214e-05 13.02L1.30002 10.1C1.92668 10.5 2.64668 10.8333 3.46002 11.1C4.28668 11.3533 5.10668 11.48 5.92002 11.48C6.46668 11.48 6.90668 11.4333 7.24002 11.34C7.57335 11.2333 7.81335 11.1 7.96002 10.94C8.12002 10.7667 8.20002 10.5667 8.20002 10.34C8.20002 10.02 8.05335 9.76667 7.76002 9.58C7.46668 9.39333 7.08668 9.24 6.62002 9.12C6.15335 9 5.63335 8.88 5.06002 8.76C4.50002 8.64 3.93335 8.48666 3.36002 8.3C2.80002 8.11333 2.28668 7.87333 1.82002 7.58C1.35335 7.27333 0.973351 6.88 0.680017 6.4C0.386684 5.90666 0.240017 5.28667 0.240017 4.54C0.240017 3.7 0.466684 2.94 0.920017 2.26C1.38668 1.58 2.08002 1.03333 3.00002 0.619998C3.92002 0.206665 5.06668 -2.14577e-06 6.44002 -2.14577e-06C7.36002 -2.14577e-06 8.26002 0.106665 9.14002 0.319999C10.0334 0.519998 10.8267 0.819998 11.52 1.22L10.3 4.16C9.63335 3.8 8.97335 3.53333 8.32002 3.36C7.66668 3.17333 7.03335 3.08 6.42002 3.08C5.87335 3.08 5.43335 3.14 5.10002 3.26C4.76668 3.36666 4.52668 3.51333 4.38002 3.7C4.23335 3.88666 4.16002 4.1 4.16002 4.34C4.16002 4.64666 4.30002 4.89333 4.58002 5.08C4.87335 5.25333 5.25335 5.4 5.72002 5.52C6.20002 5.62667 6.72002 5.74 7.28002 5.86C7.85335 5.98 8.42002 6.13333 8.98002 6.32C9.55335 6.49333 10.0734 6.73333 10.54 7.04C11.0067 7.33333 11.38 7.72667 11.66 8.22C11.9534 8.7 12.1 9.30667 12.1 10.04C12.1 10.8533 11.8667 11.6067 11.4 12.3C10.9467 12.98 10.26 13.5267 9.34002 13.94C8.43335 14.3533 7.28668 14.56 5.90002 14.56ZM18.3139 14.28V3.42H14.0139V0.279998H26.5539V3.42H22.2739V14.28H18.3139ZM32.8372 14.28V8.36L33.7572 10.74L27.4972 0.279998H31.6772L36.1972 7.86H33.7772L38.3172 0.279998H42.1572L35.9172 10.74L36.7972 8.36V14.28H32.8372ZM44.6081 14.28V0.279998H48.5681V11.14H55.2481V14.28H44.6081ZM58.4152 14.28V0.279998H69.3952V3.34H62.3352V11.22H69.6552V14.28H58.4152ZM62.0552 8.66V5.7H68.5552V8.66H62.0552ZM80.5127 14.56C79.3927 14.56 78.3593 14.38 77.4127 14.02C76.466 13.66 75.6393 13.1533 74.9327 12.5C74.2393 11.8333 73.6993 11.06 73.3127 10.18C72.926 9.3 72.7327 8.33333 72.7327 7.28C72.7327 6.22667 72.926 5.26 73.3127 4.38C73.6993 3.5 74.2393 2.73333 74.9327 2.08C75.6393 1.41333 76.466 0.899998 77.4127 0.539998C78.3593 0.179998 79.3927 -2.14577e-06 80.5127 -2.14577e-06C81.646 -2.14577e-06 82.6793 0.179998 83.6127 0.539998C84.5593 0.899998 85.3793 1.41333 86.0727 2.08C86.766 2.73333 87.306 3.5 87.6927 4.38C88.0927 5.26 88.2927 6.22667 88.2927 7.28C88.2927 8.33333 88.0927 9.30667 87.6927 10.2C87.306 11.08 86.766 11.8467 86.0727 12.5C85.3793 13.1533 84.5593 13.66 83.6127 14.02C82.6793 14.38 81.646 14.56 80.5127 14.56ZM80.5127 11.28C81.046 11.28 81.5393 11.1867 81.9927 11C82.4593 10.8133 82.8593 10.5467 83.1927 10.2C83.5393 9.84 83.806 9.41333 83.9927 8.92C84.1927 8.42667 84.2927 7.88 84.2927 7.28C84.2927 6.66666 84.1927 6.12 83.9927 5.64C83.806 5.14667 83.5393 4.72667 83.1927 4.38C82.8593 4.02 82.4593 3.74667 81.9927 3.56C81.5393 3.37333 81.046 3.28 80.5127 3.28C79.9793 3.28 79.4793 3.37333 79.0127 3.56C78.5593 3.74667 78.1593 4.02 77.8127 4.38C77.4793 4.72667 77.2127 5.14667 77.0127 5.64C76.826 6.12 76.7327 6.66666 76.7327 7.28C76.7327 7.88 76.826 8.42667 77.0127 8.92C77.2127 9.41333 77.4793 9.84 77.8127 10.2C78.1593 10.5467 78.5593 10.8133 79.0127 11C79.4793 11.1867 79.9793 11.28 80.5127 11.28ZM91.9667 14.28V0.279998H98.2267C100.267 0.279998 101.833 0.746664 102.927 1.68C104.033 2.6 104.587 3.86 104.587 5.46C104.587 6.51333 104.333 7.42667 103.827 8.2C103.32 8.96 102.6 9.54667 101.667 9.96C100.747 10.36 99.6467 10.56 98.3667 10.56H94.1667L95.9267 8.9V14.28H91.9667ZM100.627 14.28L97.1467 9.18H101.367L104.867 14.28H100.627ZM95.9267 9.32L94.1667 7.5H98.1267C98.9534 7.5 99.5667 7.32 99.9667 6.96C100.38 6.6 100.587 6.1 100.587 5.46C100.587 4.80667 100.38 4.3 99.9667 3.94C99.5667 3.58 98.9534 3.4 98.1267 3.4H94.1667L95.9267 1.58V9.32ZM106.691 14.28L112.871 0.279998H116.771L122.971 14.28H118.851L114.011 2.22H115.571L110.731 14.28H106.691ZM110.071 11.56L111.091 8.64H117.931L118.951 11.56H110.071Z" fill="white"/>
</svg>
