<svg width="18" height="17" viewBox="0 0 18 17" fill="none" xmlns="http://www.w3.org/2000/svg">
<path d="M16.905 4.54766C16.8159 4.21149 16.6345 3.90348 16.379 3.65474C16.1235 3.406 15.8031 3.22534 15.45 3.131C14.16 2.8335 9 2.8335 9 2.8335C9 2.8335 3.84 2.8335 2.55 3.15933C2.19694 3.25367 1.87648 3.43433 1.62101 3.68308C1.36554 3.93182 1.18409 4.23983 1.095 4.576C0.858912 5.81243 0.743428 7.06672 0.750001 8.32308C0.741586 9.5889 0.857077 10.8528 1.095 12.0985C1.19322 12.4242 1.37873 12.7205 1.63361 12.9588C1.88849 13.197 2.20412 13.3691 2.55 13.4585C3.84 13.7843 9 13.7843 9 13.7843C9 13.7843 14.16 13.7843 15.45 13.4585C15.8031 13.3642 16.1235 13.1835 16.379 12.9347C16.6345 12.686 16.8159 12.378 16.905 12.0418C17.1393 10.8147 17.2547 9.56998 17.25 8.32308C17.2584 7.05726 17.1429 5.79341 16.905 4.54766Z" stroke="white" stroke-width="0.6" stroke-linecap="round" stroke-linejoin="round"/>
<path d="M7.3125 10.6393L11.625 8.32308L7.3125 6.00683V10.6393Z" stroke="white" stroke-width="0.6" stroke-linecap="round" stroke-linejoin="round"/>
</svg>
